HIERARCHY
ROOT locator2
{
  OFFSET 53.6172 30.1899 0.816905
  CHANNELS 6 Xposition Yposition Zposition Zrotation Xrotation Yrotation
  JOINT koshi
  {
    OFFSET 0 0 0
    CHANNELS 6 Xposition Yposition Zposition Zrotation Xrotation Yrotation
    JOINT sippo01
    {
      OFFSET 0 42.8363 -0.548134
      CHANNELS 6 Xposition Yposition Zposition Zrotation Xrotation Yrotation
      JOINT sippo02
      {
        OFFSET 0 44.0461 -3.28882
        CHANNELS 6 Xposition Yposition Zposition Zrotation Xrotation Yrotation
        JOINT sippo03
        {
          OFFSET 0 34.1929 -2.46662
          CHANNELS 6 Xposition Yposition Zposition Zrotation Xrotation Yrotation
          JOINT sippo04
          {
            OFFSET 0 30.0959 -1.75404
            CHANNELS 6 Xposition Yposition Zposition Zrotation Xrotation Yrotation
            JOINT sippo05
            {
              OFFSET 0 28.3637 -1.75404
              CHANNELS 6 Xposition Yposition Zposition Zrotation Xrotation Yrotation
              JOINT sippo06
              {
                OFFSET 0 31.6071 -3.2043
                CHANNELS 6 Xposition Yposition Zposition Zrotation Xrotation Yrotation
                End Site
                {
                  OFFSET 0 0 0
                }
              }
            }
          }
        }
      }
    }
    JOINT R_momo
    {
      OFFSET -27.891 13.5892 3.92723
      CHANNELS 6 Xposition Yposition Zposition Zrotation Xrotation Yrotation
      JOINT R_hiza
      {
        OFFSET 0 28.01 1.8232
        CHANNELS 6 Xposition Yposition Zposition Zrotation Xrotation Yrotation
        JOINT R_ashi
        {
          OFFSET 0 24.3992 -2.49174
          CHANNELS 6 Xposition Yposition Zposition Zrotation Xrotation Yrotation
          End Site
          {
            OFFSET 0 0 0
          }
        }
      }
    }
    JOINT L_momo
    {
      OFFSET 27.891 13.5892 3.92714
      CHANNELS 6 Xposition Yposition Zposition Zrotation Xrotation Yrotation
      JOINT L_hiza
      {
        OFFSET 0 28.0098 1.82319
        CHANNELS 6 Xposition Yposition Zposition Zrotation Xrotation Yrotation
        JOINT L_ashi
        {
          OFFSET 0 24.3992 -2.49171
          CHANNELS 6 Xposition Yposition Zposition Zrotation Xrotation Yrotation
          End Site
          {
            OFFSET 0 0 0
          }
        }
      }
    }
  }
  JOINT hara
  {
    OFFSET 0 2.15392 0
    CHANNELS 6 Xposition Yposition Zposition Zrotation Xrotation Yrotation
    JOINT mune
    {
      OFFSET 0 62.0609 0.472494
      CHANNELS 6 Xposition Yposition Zposition Zrotation Xrotation Yrotation
      JOINT R_kata
      {
        OFFSET 22.6695 9.65301 -5.3622
        CHANNELS 6 Xposition Yposition Zposition Zrotation Xrotation Yrotation
        JOINT R_hiji
        {
          OFFSET 0 25.813 1.69098
          CHANNELS 6 Xposition Yposition Zposition Zrotation Xrotation Yrotation
          JOINT R_te
          {
            OFFSET 0 28.5636 -0.966307
            CHANNELS 6 Xposition Yposition Zposition Zrotation Xrotation Yrotation
            End Site
            {
              OFFSET 0 0 0
            }
          }
        }
      }
      JOINT L_kata
      {
        OFFSET -22.6695 9.65298 -5.3622
        CHANNELS 6 Xposition Yposition Zposition Zrotation Xrotation Yrotation
        JOINT L_hiji
        {
          OFFSET 0 25.813 1.69102
          CHANNELS 6 Xposition Yposition Zposition Zrotation Xrotation Yrotation
          JOINT L_te
          {
            OFFSET 0 28.5636 -0.966295
            CHANNELS 6 Xposition Yposition Zposition Zrotation Xrotation Yrotation
            End Site
            {
              OFFSET 0 0 0
            }
          }
        }
      }
      JOINT kubi
      {
        OFFSET 0 23.1438 -0.944988
        CHANNELS 6 Xposition Yposition Zposition Zrotation Xrotation Yrotation
        JOINT atama
        {
          OFFSET 0 20.8625 4.12737
          CHANNELS 6 Xposition Yposition Zposition Zrotation Xrotation Yrotation
          JOINT ago
          {
            OFFSET 0 7.552 -7.58201
            CHANNELS 6 Xposition Yposition Zposition Zrotation Xrotation Yrotation
            End Site
            {
              OFFSET 0 0 0
            }
          }
        }
      }
    }
  }
}
MOTION
Frames:	4
Frame Time:	0.0333333
133.687 30.9179 1.60003 -90 -3.50835e-015 -90 0 0 0 -178.446 -2.39519 0.258504 5.21541e-007 42.8363 -0.548138 1.10892 -9.82423 5.07507 2.16815e-006 44.0461 -3.28882 0.188516 18.8819 -3.23265 1.75336e-006 34.1929 -2.4666 -0.0695076 5.02008 -3.68457 -3.11869e-006 30.0959 -1.75401 -0.674463 11.1517 -4.42258 -5.25218e-006 28.3637 -1.75404 3.39834 0.376612 5.35427 1.72151e-005 31.6072 -3.20427 2.36343 2.52639 -10.8021 -27.891 13.5892 3.92723 60.2182 -35.8569 -81.9964 -2.50858e-006 28.01 1.8232 8.03852 -64.5618 -26.3596 -5.46146e-006 24.3992 -2.49173 -161.84 33.3285 -167.559 27.891 13.5892 3.92714 -53.2127 -22.9486 59.2738 2.82658e-006 28.0098 1.82319 -7.80873 -57.0239 42.4179 1.39576e-005 24.3992 -2.49172 161.274 52.9718 169.671 6.07686e-007 2.15392 0 -2.53638 -6.81901 -1.35829 0 62.0609 0.472494 -5.2544e-011 8.25329e-014 3.60516e-008 22.6695 9.65298 -5.3622 -164.947 13.6043 15.6549 -3.8147e-006 25.813 1.69098 0.527629 -82.9538 -1.427 -3.7746e-006 28.5636 -0.966311 91.4088 -34.6743 -58.5171 -22.6695 9.65297 -5.3622 173.454 5.20792 -30.9067 -1.14441e-005 25.813 1.69102 0.0935481 -64.5766 -2.04317 7.69146e-006 28.5636 -0.966302 -73.9553 -28.3635 57.8989 -1.36424e-012 23.1438 -0.94499 1.27674 7.63729 -8.7801 1.19184e-010 20.8625 4.12737 2.43887 4.75277 -8.29101 2.3508e-007 7.55203 -7.58201 1.11014e-007 -0.635065 1.00149e-005 
132.234 30.6884 1.49334 -90 -3.50835e-015 -90 0 0 0 -178.005 -2.19248 0.280929 5.21541e-007 42.8363 -0.548138 1.59049 -9.99218 4.57751 2.06987e-006 44.0461 -3.28882 1.51078 15.9757 -3.86483 1.29852e-006 34.1929 -2.4666 1.83514 4.04284 -3.29543 -3.87223e-006 30.0959 -1.75402 1.49715 10.6488 -3.38987 -6.0033e-006 28.3637 -1.75403 5.37302 -1.54347 5.35128 1.64264e-005 31.6072 -3.20429 3.23198 -0.211006 -9.18102 -27.891 13.5892 3.92723 62.5485 -36.062 -79.6762 -2.46227e-006 28.01 1.8232 9.04255 -67.5777 -25.441 -5.42834e-006 24.3992 -2.49173 -162.45 32.4935 -167.921 27.891 13.5892 3.92714 -57.4029 -23.6103 62.3445 2.48702e-006 28.0098 1.82319 -8.9131 -61.2581 37.9467 1.36693e-005 24.3992 -2.49172 161.776 50.0699 169.619 6.07686e-007 2.15392 0 -2.43176 -5.43557 -1.12535 8.88178e-016 62.0609 0.472494 1.19271e-015 2.34193e-015 1.54754e-013 22.6695 9.65298 -5.3622 -164.707 13.2326 16.1443 -3.8147e-006 25.813 1.69098 0.773652 -84.445 -1.41272 -3.78108e-006 28.5636 -0.966311 88.6532 -34.2611 -62.158 -22.6695 9.65297 -5.3622 170.244 7.17084 -25.0021 -1.14441e-005 25.813 1.69102 0.0982183 -67.0438 -2.13274 7.68707e-006 28.5636 -0.966303 -76.9144 -23.1721 57.8993 -1.36424e-012 23.1438 -0.94499 1.62695 5.90887 -6.7779 1.19184e-010 20.8625 4.12737 2.06891 3.16244 -6.25674 2.05848e-007 7.55203 -7.58201 2.83717e-011 1.03043 -3.37544e-009 
130.766 30.4567 1.38562 -90 -3.50835e-015 -90 0 0 0 -177.563 -1.98913 0.300365 5.21541e-007 42.8363 -0.548138 1.92191 -10.1619 4.05612 1.99708e-006 44.0461 -3.28882 2.81205 13.0402 -4.31924 8.68626e-007 34.1929 -2.46661 3.75368 3.05378 -2.83614 -4.5818e-006 30.0959 -1.75403 3.67826 10.1315 -2.30685 -6.67873e-006 28.3637 -1.75403 7.24916 -3.62586 5.50238 1.58256e-005 31.6072 -3.2043 4.11395 -2.96778 -7.56377 -27.891 13.5892 3.92723 65.0356 -36.3098 -77.0124 -2.40976e-006 28.01 1.8232 10.1489 -70.1507 -24.4365 -5.38976e-006 24.3992 -2.49173 -163.068 32.5557 -168.443 27.891 13.5892 3.92714 -62.9668 -25.4008 62.0401 2.17035e-006 28.0098 1.82319 -9.78503 -65.561 33.628 1.33543e-005 24.3992 -2.49172 162.182 47.1463 169.452 6.07686e-007 2.15392 0 -2.32778 -4.03702 -0.894583 0 62.0609 0.472494 3.97569e-016 3.31101e-015 -0 22.6695 9.65298 -5.3622 -163.872 12.8228 15.8927 -3.8147e-006 25.813 1.69098 1.20346 -85.941 -1.22427 -3.78973e-006 28.5636 -0.966312 85.9611 -33.7104 -65.7808 -22.6695 9.65297 -5.3622 166.965 9.07679 -18.8248 -1.14441e-005 25.813 1.69102 0.104208 -69.5323 -2.2219 7.68057e-006 28.5636 -0.966303 -79.803 -17.9478 60.9045 -1.36424e-012 23.1438 -0.94499 1.83679 4.75316 -4.40488 1.19185e-010 20.8625 4.12737 1.79293 2.28769 -3.90373 1.65592e-007 7.55203 -7.58201 -1.00383e-005 2.71179 6.69777e-007 
129.326 30.2295 1.27998 -90 -3.50835e-015 -90 0 0 0 -177.127 -1.78839 0.316885 5.21541e-007 42.8363 -0.548138 2.2468 -10.3279 4.08781 1.94279e-006 44.0461 -3.28882 4.07073 10.5898 -4.66548 4.69537e-007 34.1929 -2.46661 5.63259 2.08487 -2.32231 -5.22522e-006 30.0959 -1.75403 5.34415 10.0787 -1.17104 -7.22825e-006 28.3637 -1.75404 8.67472 -5.18682 5.70296 1.54267e-005 31.6072 -3.2043 4.8055 -5.1438 -6.20347 -27.891 13.5892 3.92723 67.4607 -36.421 -74.3707 -2.35026e-006 28.01 1.8232 11.5607 -72.6648 -23.126 -5.33906e-006 24.3992 -2.49173 -163.675 32.6145 -168.954 27.891 13.5892 3.92714 -68.4712 -26.2337 61.3902 1.83481e-006 28.0098 1.82319 -11.0474 -69.7722 30.1253 1.30343e-005 24.3992 -2.49172 162.9 44.9678 169.513 6.07686e-007 2.15392 0 -2.2275 -2.66625 -0.673349 -4.44089e-016 62.0609 0.472494 -6.75664e-033 -1.29831e-015 -2.98177e-016 22.6695 9.65298 -5.3622 -163.053 12.42 15.6561 -3.8147e-006 25.813 1.69098 1.51309 -86.3918 -1.15151 -3.79201e-006 28.5636 -0.966312 83.4274 -32.9922 -69.263 -22.6695 9.65297 -5.3622 163.778 9.40376 -13.8532 -1.14441e-005 25.813 1.69102 0.109894 -71.6764 -2.30987 7.67404e-006 28.5636 -0.966304 -82.2611 -13.4351 64.2101 -1.3638e-012 23.1438 -0.94499 1.90622 4.39656 -1.97793 1.19185e-010 20.8625 4.12737 1.70256 2.28765 -1.7462 1.32956e-007 7.55203 -7.58201 -1.08107e-005 4.36095 1.08074e-005 
